<svg width="72" height="60" viewBox="0 0 72 60" fill="none" xmlns="http://www.w3.org/2000/svg">
<path d="M67.4233 41.8417V35.2768C67.0389 34.8951 66.7276 34.9206 66.4713 35.2768V41.8417C66.9107 42.1979 67.1304 42.2488 67.4233 41.8417Z" fill="white" stroke="url(#paint0_linear_1249_18)"/>
<path d="M70.5537 39.0062H63.3056C62.8842 38.658 62.9123 38.3761 63.3056 38.144H70.5537C70.947 38.5419 71.0032 38.7409 70.5537 39.0062Z" fill="white" stroke="url(#paint1_linear_1249_18)"/>
<path d="M33.7404 9.74057L33.7407 9.74084L34.8146 10.8158L35.8747 9.7271L35.8749 9.72686L35.8755 9.72629L35.8756 9.72617L35.8822 9.71947L35.9158 9.68571C35.9471 9.65447 35.996 9.60611 36.0617 9.54239C36.1933 9.4149 36.3921 9.22617 36.6524 8.9903C37.1735 8.51815 37.9383 7.85947 38.8999 7.12625C40.832 5.65313 43.516 3.91217 46.5829 2.76046C49.6476 1.60962 53.0167 1.07516 56.3853 1.89793C59.7278 2.71432 63.2502 4.91065 66.5721 9.55267C69.2782 13.3343 68.9969 18.1087 66.5911 23.5317C64.189 28.9463 59.8009 34.6672 54.9286 39.9361C50.0729 45.1869 44.8162 49.9041 40.7649 53.3141C38.7413 55.0173 37.0231 56.3904 35.8126 57.3364C35.4122 57.6493 35.0675 57.9154 34.7857 58.1311C34.5036 57.9221 34.1591 57.6646 33.7595 57.362C32.5434 56.4409 30.8181 55.1023 28.7891 53.4375C24.7266 50.104 19.4673 45.4798 14.6421 40.2937C9.79959 35.089 5.47966 29.4082 3.19756 23.966C0.922997 18.5419 0.767586 13.6272 3.75146 9.56819C6.99284 5.15891 10.4307 3.06904 13.6993 2.29143C16.9946 1.50747 20.2896 2.01704 23.2844 3.11279C26.2812 4.20924 28.9027 5.86636 30.7889 7.2679C31.7279 7.96555 32.4744 8.59217 32.9828 9.04114C33.2368 9.26543 33.4307 9.44483 33.5589 9.5659C33.623 9.62641 33.6706 9.67229 33.701 9.70187L33.7335 9.73376L33.7397 9.73988L33.7399 9.74012L33.7404 9.74057Z" fill="white" stroke="url(#paint2_linear_1249_18)" stroke-width="3"/>
<path d="M0 32.7608H22.1613C22.5773 32.7608 22.9498 33.0182 23.0968 33.4073L25.0764 38.6466C25.4141 39.5403 26.6927 39.497 26.9691 38.5825L33.9538 15.475C34.2868 14.3736 35.9111 14.6137 35.9111 15.7644V45.6227C35.9111 46.8393 37.673 47.001 37.8944 45.8047L41.5531 26.0346C41.751 24.9652 43.2729 24.9358 43.512 25.9968L45.403 34.3902C45.6239 35.3711 46.9916 35.4491 47.3227 34.4998L49.2021 29.1113C49.3422 28.7097 49.721 28.4406 50.1463 28.4406H71.3558" stroke="url(#paint3_linear_1249_18)" stroke-width="2"/>
<defs>
<linearGradient id="paint0_linear_1249_18" x1="67.4233" y1="38.5641" x2="66.4713" y2="38.5641" gradientUnits="userSpaceOnUse">
<stop offset="0.186" stop-color="#0D9D9F"/>
<stop offset="0.596" stop-color="#053839"/>
</linearGradient>
<linearGradient id="paint1_linear_1249_18" x1="66.9351" y1="39.0062" x2="66.9351" y2="38.144" gradientUnits="userSpaceOnUse">
<stop offset="0.186" stop-color="#0D9D9F"/>
<stop offset="0.596" stop-color="#053839"/>
</linearGradient>
<linearGradient id="paint2_linear_1249_18" x1="35" y1="60" x2="35" y2="0" gradientUnits="userSpaceOnUse">
<stop offset="0.186" stop-color="#0D9D9F"/>
<stop offset="0.596" stop-color="#053839"/>
</linearGradient>
<linearGradient id="paint3_linear_1249_18" x1="35.6779" y1="9" x2="35.6779" y2="56.5215" gradientUnits="userSpaceOnUse">
<stop offset="0.186" stop-color="#0D9D9F"/>
<stop offset="0.596" stop-color="#053839"/>
</linearGradient>
</defs>
</svg>
